<svg width="103" height="168" viewBox="0 0 103 168" fill="none" xmlns="http://www.w3.org/2000/svg">
<path d="M51.6982 95.4785C79.9743 95.4785 102.896 118.349 102.896 146.561V167.433H0.5V146.561C0.5 118.349 23.4222 95.4786 51.6982 95.4785ZM46.3633 106.261C26.3852 108.868 10.96 125.917 10.96 146.561V156.996H92.4365V146.561C92.4365 125.974 77.0967 108.964 57.1992 106.284L62.0762 145.292L52.3896 154.286L42.7041 145.292L46.3633 106.261Z" fill="white"/>
<path d="M17.9551 53.9658C21.9711 68.6143 35.5548 79.3945 51.6982 79.3945C67.8417 79.3945 81.4254 68.6143 85.4414 53.9658H96.4463C92.2152 74.4927 73.7896 89.9424 51.6982 89.9424C29.6068 89.9424 11.1803 74.4928 6.94922 53.9658H17.9551ZM51.6982 0C74.7718 2.44811e-06 93.8448 16.8545 96.9238 38.7441H6.47266C9.55163 16.8545 28.6247 0 51.6982 0ZM51.6982 10.5479C38.2248 10.5479 26.5347 18.0577 20.7012 29.0576H82.6953C76.8618 18.0577 65.1717 10.5479 51.6982 10.5479Z" fill="white"/>
</svg>
