<svg width="102" height="168" viewBox="0 0 102 168" fill="none" xmlns="http://www.w3.org/2000/svg">
<path d="M91.0038 146.558C91.0038 124.11 73.0489 105.913 50.9003 105.913C28.7518 105.913 10.7968 124.11 10.7968 146.558V156.994H91.0038V146.558ZM101.301 167.43H0.5V146.558C0.5 118.346 23.065 95.4766 50.9003 95.4766C78.7357 95.4766 101.301 118.346 101.301 146.558V167.43Z" fill="white"/>
<path d="M85.7069 44.9709C85.7069 25.9601 70.3317 10.5487 51.3655 10.5487C32.3992 10.5487 17.024 25.9601 17.024 44.9709C17.024 63.9817 32.3992 79.393 51.3655 79.393V89.9418C26.587 89.9418 6.5 69.8076 6.5 44.9709C6.5 20.1342 26.587 0 51.3655 0C76.144 0 96.2309 20.1342 96.2309 44.9709C96.2309 69.8076 76.144 89.9418 51.3655 89.9418V79.393C70.3317 79.393 85.7069 63.9817 85.7069 44.9709Z" fill="white"/>
</svg>
